<?xml version="1.0" encoding="UTF-8"?>
<svg width="223px" height="68px" viewBox="0 0 223 68" version="1.1" xmlns="http://www.w3.org/2000/svg" xmlns:xlink="http://www.w3.org/1999/xlink">
    <!-- Generator: Sketch 57.1 (83088) - https://sketch.com -->
    <title>logo</title>
    <desc>Created with Sketch.</desc>
    <g id="Page-1" stroke="none" stroke-width="1" fill="none" fill-rule="evenodd">
        <g id="logo" transform="translate(-1.000000, 0.000000)" fill="#FFFFFF" fill-rule="nonzero">
            <g id="Group" transform="translate(0.318137, 0.000000)">
                <polygon id="Path" points="0.681863251 6.65215522 12.4864907 67.848515 8.41334626 26.8888577 28.5439194 25.5764617 28.506462 18.7210654 36.4508972 0 28.8713248 12.469843"></polygon>
                <polygon id="Path" points="32.8716354 37.143859 36.4508972 0.00485558775 30.3883491 27.5540732 16.7843795 28.2789431 17.8734185 42.4725197 12.4864907 67.848515 20.8498938 40.1723584"></polygon>
                <polygon id="Path" points="35.237694 45.9075012 35.6185108 38.6567214 24.5345913 41.2613974 24.5123943 49.4444501 12.4864907 67.848515 27.5249396 48.6925276"></polygon>
                <polygon id="Path" points="37.2569248 42.5862792 47.5514645 39.3045955 48.5981905 30.6117061 37.5697634 32.0649142"></polygon>
                <polygon id="Path" points="41.6678795 30.1753969 49.2897649 29.1924872 50.3864341 22.0630971 44.7823922 21.8043636 36.4508972 0 42.2984122 21.4804266"></polygon>
                <polygon id="Path" points="52.3106342 21.0135965 53.1818653 14.4197083 46.5616183 12.5510007 36.4508972 0 46.4971083 15.5635461 46.2043857 20.4191338"></polygon>
            </g>
            <g id="Group" transform="translate(64.000000, 13.295118)">
                <path d="M10.7074668,23.8987974 L10.7074668,17.1856521 L3.69222994,12.2514903 L3.69222994,23.8987974 L0,23.8987974 L0,1.0069718 L3.69222994,1.0069718 L3.69222994,7.75368288 L10.7074668,12.6878447 L10.7074668,1.0069718 L14.3996968,1.0069718 L14.3996968,23.8987974 L10.7074668,23.8987974 Z M17.7562695,23.831666 L17.7562695,0.704880262 L32.2902291,0.704880262 L32.2902291,4.43067593 L21.4484994,4.43067593 L21.4484994,10.4053753 L28.4637363,10.4053753 L28.4637363,14.131171 L21.4484994,14.131171 L21.4484994,20.1058703 L32.2902291,20.1058703 L32.2902291,23.831666 L17.7562695,23.831666 Z M50.1471958,23.7981003 C48.8716981,23.7981003 47.6968977,23.3953115 46.6899259,22.6568656 L46.3207029,22.354774 L45.9179142,22.6568656 C44.9109424,23.3953115 43.736142,23.7981003 42.4942101,23.7981003 L41.3194096,23.7981003 C39.8089519,23.7981003 38.3991914,23.2274829 37.3250881,22.1533797 C36.2509849,21.0792764 35.6468018,19.6695159 35.6468018,18.1254924 L35.6468018,1.0069718 L39.3390318,1.0069718 L39.3390318,18.1254924 C39.3390318,18.6625441 39.5404261,19.16603 39.9096491,19.535253 C40.2788721,19.9380417 40.782358,20.139436 41.3194096,20.139436 L42.4942101,20.139436 C42.997696,20.139436 43.5011819,19.9380417 43.9039706,19.535253 C44.2060621,19.2331614 44.4410222,18.796807 44.4745879,18.3268868 L44.4745879,18.2933211 L44.4745879,18.1254924 L44.4745879,1.0069718 L48.1332522,1.0069718 L48.1332522,18.1254924 L48.1332522,18.2933211 L48.1332522,18.3268868 C48.2003836,18.796807 48.401778,19.2331614 48.7374352,19.535253 C49.1066582,19.9380417 49.6101441,20.139436 50.1471958,20.139436 L51.2884305,20.139436 C51.8254821,20.139436 52.328968,19.9380417 52.698191,19.535253 C53.067414,19.16603 53.3023741,18.6625441 53.3023741,18.1254924 L53.3023741,1.0069718 L56.9610383,1.0069718 L56.9610383,18.1254924 C56.9610383,19.6359501 56.3568552,21.0792764 55.282752,22.1533797 C54.2086487,23.2274829 52.7988882,23.7981003 51.2884305,23.7981003 L50.1471958,23.7981003 L50.1471958,23.7981003 Z M65.9902188,23.8987974 C64.4797611,23.8987974 63.0700006,23.3281801 61.9958973,22.2540768 C60.8882283,21.1799736 60.317611,19.7366473 60.317611,18.2261896 L60.317611,17.6220065 L64.0098409,17.6220065 L64.0098409,18.2261896 C64.0098409,18.7632413 64.2112353,19.2667272 64.5804583,19.6359501 C64.983247,20.0051731 65.4531672,20.2401332 65.9902188,20.2401332 L69.0111342,20.2401332 C69.5481858,20.2401332 70.0516717,20.0051731 70.4544604,19.6359501 C70.8236834,19.2667272 71.0250778,18.7632413 71.0250778,18.2261896 L71.0250778,16.3129432 C71.0250778,15.7758916 70.8236834,15.2724057 70.4544604,14.9031827 C70.0516717,14.500394 69.5481858,14.2989996 69.0111342,14.2989996 L65.9902188,14.2989996 C64.4797611,14.2989996 63.0700006,13.6948165 61.9958973,12.6207133 C60.8882283,11.54661 60.317611,10.1368495 60.317611,8.59282605 L60.317611,6.71314535 C60.317611,5.16912192 60.8882283,3.7593614 61.9958973,2.68525814 C63.0700006,1.61115488 64.4797611,1.0069718 65.9902188,1.0069718 L69.0111342,1.0069718 C70.5551576,1.0069718 71.9649182,1.61115488 73.0390214,2.68525814 C74.1131247,3.7593614 74.7173077,5.16912192 74.7173077,6.71314535 L74.7173077,7.31732843 L71.0250778,7.31732843 L71.0250778,6.71314535 C71.0250778,6.17609372 70.8236834,5.67260782 70.4544604,5.2698191 C70.0516717,4.90059611 69.5481858,4.69920174 69.0111342,4.69920174 L65.9902188,4.69920174 C65.4531672,4.69920174 64.9496813,4.90059611 64.5804583,5.2698191 C64.2112353,5.67260782 64.0098409,6.17609372 64.0098409,6.71314535 L64.0098409,8.59282605 C64.0098409,9.12987768 64.2112353,9.63336358 64.5804583,10.0361523 C64.983247,10.4053753 65.4531672,10.6067697 65.9902188,10.6067697 L69.0111342,10.6067697 C70.5551576,10.6067697 71.9649182,11.2109527 73.0390214,12.285056 C74.1131247,13.3591592 74.7173077,14.8024855 74.7173077,16.3129432 L74.7173077,18.2261896 C74.7173077,19.7366473 74.1131247,21.1799736 73.0390214,22.2540768 C71.9649182,23.3281801 70.5551576,23.8987974 69.0111342,23.8987974 L65.9902188,23.8987974 Z M90.5938965,23.8987974 C89.0834388,23.8987974 87.6401125,23.3281801 86.5660093,22.2540768 C85.491906,21.1799736 84.8877229,19.7366473 84.8877229,18.2261896 L84.8877229,6.71314535 C84.8877229,5.16912192 85.491906,3.7593614 86.5660093,2.68525814 C87.6401125,1.61115488 89.0834388,1.0069718 90.5938965,1.0069718 L93.6148119,1.0069718 C95.1252696,1.0069718 96.5685959,1.61115488 97.6426991,2.68525814 C98.7168024,3.7593614 99.3209855,5.16912192 99.3209855,6.71314535 L99.3209855,18.2261896 C99.3209855,19.7366473 98.7168024,21.1799736 97.6426991,22.2540768 C96.5685959,23.3281801 95.1252696,23.8987974 93.6148119,23.8987974 L90.5938965,23.8987974 Z M90.5938965,4.69920174 C90.0568449,4.69920174 89.553359,4.90059611 89.184136,5.2698191 C88.7813473,5.67260782 88.5799529,6.17609372 88.5799529,6.71314535 L88.5799529,18.2261896 C88.5799529,18.7632413 88.7813473,19.2667272 89.184136,19.6359501 C89.553359,20.0051731 90.0568449,20.2401332 90.5938965,20.2401332 L93.6148119,20.2401332 C94.1518635,20.2401332 94.6553494,20.0051731 95.0245724,19.6359501 C95.4273611,19.2667272 95.6287555,18.7632413 95.6287555,18.2261896 L95.6287555,6.71314535 C95.6287555,6.17609372 95.4273611,5.67260782 95.0245724,5.2698191 C94.6553494,4.90059611 94.1518635,4.69920174 93.6148119,4.69920174 L90.5938965,4.69920174 Z M113.519288,23.831666 L113.519288,20.508659 L106.403354,20.508659 L106.403354,23.831666 L102.677558,23.831666 L102.677558,6.44461954 C102.677558,4.93416183 103.281741,3.49083558 104.38941,2.3831666 C105.463513,1.30906334 106.90684,0.704880262 108.450863,0.704880262 L111.505344,0.704880262 C113.015802,0.704880262 114.459128,1.30906334 115.566797,2.3831666 C116.6409,3.49083558 117.245084,4.93416183 117.245084,6.44461954 L117.245084,23.831666 L113.519288,23.831666 Z M108.450863,4.43067593 C107.913811,4.43067593 107.37676,4.63207029 107.007537,5.03485901 C106.638314,5.40408201 106.403354,5.90756791 106.403354,6.44461954 L106.403354,16.7828634 L113.519288,16.7828634 L113.519288,6.44461954 C113.519288,5.90756791 113.317894,5.40408201 112.915105,5.03485901 C112.545882,4.63207029 112.042396,4.43067593 111.505344,4.43067593 L108.450863,4.43067593 L108.450863,4.43067593 Z M126.274264,23.8987974 C124.763806,23.8987974 123.354046,23.3281801 122.279943,22.2540768 C121.172274,21.1799736 120.601656,19.7366473 120.601656,18.2261896 L120.601656,17.6220065 L124.293886,17.6220065 L124.293886,18.2261896 C124.293886,18.7632413 124.495281,19.2667272 124.864504,19.6359501 C125.267292,20.0051731 125.737212,20.2401332 126.274264,20.2401332 L129.295179,20.2401332 C129.832231,20.2401332 130.335717,20.0051731 130.738506,19.6359501 C131.107729,19.2667272 131.309123,18.7632413 131.309123,18.2261896 L131.309123,16.3129432 C131.309123,15.7758916 131.107729,15.2724057 130.738506,14.9031827 C130.335717,14.500394 129.832231,14.2989996 129.295179,14.2989996 L126.274264,14.2989996 C124.763806,14.2989996 123.354046,13.6948165 122.279943,12.6207133 C121.172274,11.54661 120.601656,10.1368495 120.601656,8.59282605 L120.601656,6.71314535 C120.601656,5.16912192 121.172274,3.7593614 122.279943,2.68525814 C123.354046,1.61115488 124.763806,1.0069718 126.274264,1.0069718 L129.295179,1.0069718 C130.839203,1.0069718 132.248963,1.61115488 133.323067,2.68525814 C134.39717,3.7593614 135.001353,5.16912192 135.001353,6.71314535 L135.001353,7.31732843 L131.309123,7.31732843 L131.309123,6.71314535 C131.309123,6.17609372 131.107729,5.67260782 130.738506,5.2698191 C130.335717,4.90059611 129.832231,4.69920174 129.295179,4.69920174 L126.274264,4.69920174 C125.737212,4.69920174 125.233727,4.90059611 124.864504,5.2698191 C124.495281,5.67260782 124.293886,6.17609372 124.293886,6.71314535 L124.293886,8.59282605 C124.293886,9.12987768 124.495281,9.63336358 124.864504,10.0361523 C125.267292,10.4053753 125.737212,10.6067697 126.274264,10.6067697 L129.295179,10.6067697 C130.839203,10.6067697 132.248963,11.2109527 133.323067,12.285056 C134.39717,13.3591592 135.001353,14.8024855 135.001353,16.3129432 L135.001353,18.2261896 C135.001353,19.7366473 134.39717,21.1799736 133.323067,22.2540768 C132.248963,23.3281801 130.839203,23.8987974 129.295179,23.8987974 L126.274264,23.8987974 L126.274264,23.8987974 Z M138.357926,23.831666 L138.357926,0.704880262 L142.083721,0.704880262 L142.083721,23.831666 L138.357926,23.831666 Z M151.112902,23.8987974 C149.602444,23.8987974 148.192684,23.3281801 147.11858,22.2540768 C146.010911,21.1799736 145.440294,19.7366473 145.440294,18.2261896 L145.440294,17.6220065 L149.132524,17.6220065 L149.132524,18.2261896 C149.132524,18.7632413 149.333918,19.2667272 149.703141,19.6359501 C150.10593,20.0051731 150.57585,20.2401332 151.112902,20.2401332 L154.133817,20.2401332 C154.670869,20.2401332 155.174355,20.0051731 155.577143,19.6359501 C155.946366,19.2667272 156.147761,18.7632413 156.147761,18.2261896 L156.147761,16.3129432 C156.147761,15.7758916 155.946366,15.2724057 155.577143,14.9031827 C155.174355,14.500394 154.670869,14.2989996 154.133817,14.2989996 L151.112902,14.2989996 C149.602444,14.2989996 148.192684,13.6948165 147.11858,12.6207133 C146.010911,11.54661 145.440294,10.1368495 145.440294,8.59282605 L145.440294,6.71314535 C145.440294,5.16912192 146.010911,3.7593614 147.11858,2.68525814 C148.192684,1.61115488 149.602444,1.0069718 151.112902,1.0069718 L154.133817,1.0069718 C155.677841,1.0069718 157.087601,1.61115488 158.161704,2.68525814 C159.235808,3.7593614 159.839991,5.16912192 159.839991,6.71314535 L159.839991,7.31732843 L156.147761,7.31732843 L156.147761,6.71314535 C156.147761,6.17609372 155.946366,5.67260782 155.577143,5.2698191 C155.174355,4.90059611 154.670869,4.69920174 154.133817,4.69920174 L151.112902,4.69920174 C150.57585,4.69920174 150.072364,4.90059611 149.703141,5.2698191 C149.333918,5.67260782 149.132524,6.17609372 149.132524,6.71314535 L149.132524,8.59282605 C149.132524,9.12987768 149.333918,9.63336358 149.703141,10.0361523 C150.10593,10.4053753 150.57585,10.6067697 151.112902,10.6067697 L154.133817,10.6067697 C155.677841,10.6067697 157.087601,11.2109527 158.161704,12.285056 C159.235808,13.3591592 159.839991,14.8024855 159.839991,16.3129432 L159.839991,18.2261896 C159.839991,19.7366473 159.235808,21.1799736 158.161704,22.2540768 C157.087601,23.3281801 155.677841,23.8987974 154.133817,23.8987974 L151.112902,23.8987974 L151.112902,23.8987974 Z" id="Shape"></path>
            </g>
            <g id="Group" transform="translate(63.798033, 51.697050)">
                <path d="M1.32288342,6.94766254 L5.14005848,6.94766254 L5.14005848,7.87671044 L0.201966934,7.87671044 L0.201966934,0.302950401 L1.32288342,0.302950401 L1.32288342,6.94766254 Z M9.34097071,0.302950401 L12.4512615,7.87671044 L11.2394599,7.87671044 L10.4820839,5.89743448 L7.50307161,5.89743448 L6.75579395,7.87671044 L5.54399235,7.87671044 L8.65428314,0.302950401 L9.34097071,0.302950401 Z M7.85651375,4.96838658 L10.1286418,4.96838658 L8.99762692,1.97927596 L7.85651375,4.96838658 Z M19.0656786,0.302950401 L19.0656786,1.45416193 L14.7334879,6.94766254 L19.0656786,6.94766254 L19.0656786,7.87671044 L13.5620796,7.87671044 L13.5620796,6.72549891 L17.884172,1.2319983 L13.5620796,1.2319983 L13.5620796,0.302950401 L18.5405646,0.302950401 L19.0656786,0.302950401 Z M25.9729478,0.302950401 L27.3362246,0.302950401 L24.2158354,4.86740312 L24.2158354,7.87671044 L23.0949189,7.87671044 L23.0949189,4.86740312 L19.9745298,0.302950401 L21.3378066,0.302950401 L23.650328,3.83737175 L25.9729478,0.302950401 Z M36.4853267,2.98911063 C36.4853267,4.14032215 35.8188358,5.06937005 34.8594929,5.47330392 L36.4853267,7.87671044 L35.24323,7.87671044 L33.7587731,5.67527085 L31.9915624,5.67527085 L31.9915624,7.87671044 L30.8706459,7.87671044 L30.8706459,5.67527085 L30.8706459,4.74622296 L30.8706459,1.2319983 L30.8706459,0.302950401 L31.9915624,0.302950401 L33.8092648,0.302950401 C35.2937218,0.313048748 36.4853267,1.46426027 36.4853267,2.98911063 Z M31.9915624,1.2319983 L31.9915624,4.74622296 L33.7991665,4.74622296 C34.6575259,4.74622296 35.3644102,4.01914199 35.3644102,2.98911063 C35.3644102,1.96917761 34.6575259,1.2319983 33.7991665,1.2319983 L31.9915624,1.2319983 Z M39.1209952,6.94766254 L43.2310223,6.94766254 L43.2310223,7.87671044 L38.0000787,7.87671044 L38.0000787,0.302950401 L43.0391537,0.302950401 L43.0391537,1.2319983 L39.1209952,1.2319983 L39.1209952,3.47383127 L42.3221711,3.47383127 L42.3221711,4.41297752 L39.1209952,4.41297752 L39.1209952,6.94766254 Z M47.532918,0.302950401 L50.6432088,7.87671044 L49.4314072,7.87671044 L48.6740312,5.89743448 L45.6950189,5.89743448 L44.9477412,7.87671044 L43.7359396,7.87671044 L46.8462304,0.302950401 L47.532918,0.302950401 L47.532918,0.302950401 Z M46.048461,4.96838658 L48.320589,4.96838658 L47.1895742,1.97927596 L46.048461,4.96838658 Z M58.136182,4.08983042 C58.136182,6.18018819 56.5103482,7.86661209 54.5007772,7.87671044 L51.55206,7.87671044 L51.55206,0.302950401 L54.5007772,0.302950401 C56.5103482,0.313048748 58.136182,2.009571 58.136182,4.08983042 Z M54.4805805,6.94766254 C55.1470714,6.94766254 55.7832673,6.66490883 56.2578896,6.12969646 C56.7426102,5.58438573 57.0152656,4.86740312 57.0152656,4.08983042 C57.0152656,3.32235607 56.7426102,2.59527511 56.2578896,2.06006273 C55.7832673,1.52485035 55.1470714,1.2319983 54.4805805,1.2319983 L52.6729765,1.2319983 L52.6729765,6.94766254 L54.4805805,6.94766254 Z M60.7718505,6.94766254 L64.8818777,6.94766254 L64.8818777,7.87671044 L59.6509341,7.87671044 L59.6509341,0.302950401 L64.6900091,0.302950401 L64.6900091,1.2319983 L60.7718505,1.2319983 L60.7718505,3.47383127 L63.9730264,3.47383127 L63.9730264,4.41297752 L60.7718505,4.41297752 L60.7718505,6.94766254 L60.7718505,6.94766254 Z M71.8093435,2.98911063 C71.8093435,4.14032215 71.1428526,5.06937005 70.1835097,5.47330392 L71.8093435,7.87671044 L70.5672469,7.87671044 L69.0827899,5.67527085 L67.3155792,5.67527085 L67.3155792,7.87671044 L66.1946627,7.87671044 L66.1946627,5.67527085 L66.1946627,4.74622296 L66.1946627,1.2319983 L66.1946627,0.302950401 L67.3155792,0.302950401 L69.1332816,0.302950401 C70.6177386,0.313048748 71.8093435,1.46426027 71.8093435,2.98911063 Z M67.3155792,1.2319983 L67.3155792,4.74622296 L69.1231833,4.74622296 C69.9815427,4.74622296 70.688427,4.01914199 70.688427,2.98911063 C70.688427,1.96917761 69.9815427,1.2319983 69.1231833,1.2319983 L67.3155792,1.2319983 Z M79.2417267,0.302950401 L82.3520175,7.87671044 L81.1402159,7.87671044 L80.3828399,5.89743448 L77.4038276,5.89743448 L76.6565499,7.87671044 L75.4447483,7.87671044 L78.5550391,0.302950401 L79.2417267,0.302950401 Z M77.7572697,4.96838658 L80.0293977,4.96838658 L78.8983829,1.97927596 L77.7572697,4.96838658 Z M88.9765329,3.0900941 C88.9765329,4.6250428 87.784928,5.86713944 86.3105694,5.87723779 L84.492867,5.87723779 L84.492867,7.87671044 L83.3618521,7.87671044 L83.3618521,0.302950401 L86.3105694,0.302950401 C87.784928,0.313048748 88.9765329,1.55514539 88.9765329,3.0900941 Z M86.2903727,4.94818989 C87.1588305,4.94818989 87.8556164,4.11002711 87.8556164,3.0900941 C87.8556164,2.07016108 87.1588305,1.2319983 86.2903727,1.2319983 L84.492867,1.2319983 L84.492867,4.94818989 L86.2903727,4.94818989 Z M96.1059657,3.0900941 C96.1059657,4.6250428 94.9143608,5.86713944 93.4400022,5.87723779 L91.6222998,5.87723779 L91.6222998,7.87671044 L90.4912849,7.87671044 L90.4912849,0.302950401 L93.4400022,0.302950401 C94.9143608,0.313048748 96.1059657,1.55514539 96.1059657,3.0900941 Z M93.4198055,4.94818989 C94.2882633,4.94818989 94.9850492,4.11002711 94.9850492,3.0900941 C94.9850492,2.07016108 94.2882633,1.2319983 93.4198055,1.2319983 L91.6222998,1.2319983 L91.6222998,4.94818989 L93.4198055,4.94818989 Z" id="Shape"></path>
            </g>
        </g>
    </g>
</svg>